HIERARCHY
ROOT Hips
{
 OFFSET 0.000000 0.000000 0.000000
 CHANNELS 6 Xposition Yposition Zposition Yrotation Xrotation Zrotation
 JOINT Chest
 {
  OFFSET 0.000000 10.080317 -0.001081
  CHANNELS 3 Yrotation Xrotation Zrotation
  JOINT Chest2
  {
   OFFSET 0.000000 11.096852 0.001963
   CHANNELS 3 Yrotation Xrotation Zrotation
   JOINT Chest3
   {
    OFFSET 0.000000 10.026525 0.000000
    CHANNELS 3 Yrotation Xrotation Zrotation
    JOINT Chest4
    {
     OFFSET 0.000000 10.026525 0.000000
     CHANNELS 3 Yrotation Xrotation Zrotation
     JOINT Neck
     {
      OFFSET 0.000000 14.108171 0.000000
      CHANNELS 3 Yrotation Xrotation Zrotation
      JOINT Head
      {
       OFFSET 0.000000 9.333493 0.004668
       CHANNELS 3 Yrotation Xrotation Zrotation
       End Site
       {
        OFFSET 0.000000 17.851786 0.002438
       }
      }
     }
     JOINT RightCollar
     {
      OFFSET -3.071622 7.873185 0.000000
      CHANNELS 3 Yrotation Xrotation Zrotation
      JOINT RightShoulder
      {
       OFFSET -14.378659 0.000000 0.000000
       CHANNELS 3 Yrotation Xrotation Zrotation
       JOINT RightElbow
       {
        OFFSET -30.778728 0.000000 0.000000
        CHANNELS 3 Yrotation Xrotation Zrotation
        JOINT RightWrist
        {
         OFFSET -25.164217 0.000000 0.000000
         CHANNELS 3 Yrotation Xrotation Zrotation
         End Site
         {
          OFFSET -18.796788 0.000000 0.000000
         }
        }
       }
      }
     }
     JOINT LeftCollar
     {
      OFFSET 3.071622 7.873185 0.000000
      CHANNELS 3 Yrotation Xrotation Zrotation
      JOINT LeftShoulder
      {
       OFFSET 14.378659 0.000000 0.000000
       CHANNELS 3 Yrotation Xrotation Zrotation
       JOINT LeftElbow
       {
        OFFSET 30.778728 0.000000 0.000000
        CHANNELS 3 Yrotation Xrotation Zrotation
        JOINT LeftWrist
        {
         OFFSET 25.164217 0.000000 0.000000
         CHANNELS 3 Yrotation Xrotation Zrotation
         End Site
         {
          OFFSET 18.796788 0.000000 0.000000
         }
        }
       }
      }
     }
    }
   }
  }
 }
 JOINT RightHip
 {
  OFFSET -8.194923 0.005295 0.000540
  CHANNELS 3 Yrotation Xrotation Zrotation
  JOINT RightKnee
  {
   OFFSET 0.000000 -42.473320 -0.000511
   CHANNELS 3 Yrotation Xrotation Zrotation
   JOINT RightAnkle
   {
    OFFSET 0.000000 -41.474259 -0.000865
    CHANNELS 3 Yrotation Xrotation Zrotation
    JOINT RightToe
    {
     OFFSET 0.000000 -7.354994 16.712725
     CHANNELS 3 Yrotation Xrotation Zrotation
     End Site
     {
      OFFSET 0.000000 -1.553903 6.764158
     }
    }
   }
  }
 }
 JOINT LeftHip
 {
  OFFSET 8.194923 0.005295 0.000540
  CHANNELS 3 Yrotation Xrotation Zrotation
  JOINT LeftKnee
  {
   OFFSET 0.000000 -42.473320 -0.000511
   CHANNELS 3 Yrotation Xrotation Zrotation
   JOINT LeftAnkle
   {
    OFFSET 0.000000 -41.474259 -0.000865
    CHANNELS 3 Yrotation Xrotation Zrotation
    JOINT LeftToe
    {
     OFFSET 0.000000 -7.354994 16.712725
     CHANNELS 3 Yrotation Xrotation Zrotation
     End Site
     {
      OFFSET 0.000000 -1.553903 6.764158
     }
    }
   }
  }
 }
}
MOTION
Frames: 12
Frame Time: 0.016667
-30.939859 85.486197 113.083780 10.565426 2.550987 2.058847 -3.518195 6.022915 5.443725 -1.423654 2.963125 2.047495 -1.423654 2.963125 2.047495 -1.077451 2.217619 1.542196 -3.537814 15.033022 2.491330 -7.561526 -8.006774 5.995924 8.383131 -13.338805 2.077996 12.454249 -42.697798 31.126439 102.808345 -3.546657 9.851830 3.903928 3.687225 -7.861293 -9.400905 -9.933940 -2.211969 -10.721980 -42.194363 -62.990111 -107.291652 -23.636530 -43.102747 0.691699 13.245952 9.274896 1.365956 -36.686093 -2.949160 8.876386 33.200664 -2.441578 -1.963370 1.379107 5.154855 -0.341868 -0.017429 0.188028 21.594609 -7.522469 8.502862 -4.895537 45.544945 -20.065840 -0.055648 -27.618250 1.566332 1.185984 -11.538932 1.901180
-31.114792 86.054319 113.582655 12.408317 1.880887 2.199772 -3.237378 5.836990 5.138920 -1.301994 2.875139 1.950778 -1.301994 2.875139 1.950778 -0.985487 2.152237 1.468914 -4.092978 15.417771 2.867550 -8.703990 -7.207975 6.868083 8.914968 -13.304027 2.037945 12.418664 -42.437117 30.509177 98.662711 -1.863810 9.429303 4.265745 3.553373 -7.832195 -8.855657 -10.022814 -2.355351 -11.234216 -41.735303 -64.484973 -107.424353 -25.176834 -43.578233 0.514109 13.308478 9.689126 0.748857 -34.690316 -3.602237 8.001347 31.751582 -2.533273 -1.920383 1.470545 5.152161 -0.660776 0.095803 0.034428 20.738923 -5.667990 8.302711 -4.490190 42.791547 -18.546629 0.294195 -27.392508 1.685933 1.232603 -9.854589 1.163672
-31.422901 86.534076 114.074158 14.225652 1.311354 2.034832 -3.052889 5.596015 5.083253 -1.194843 2.788870 1.870589 -1.194843 2.788870 1.870589 -0.904507 2.088029 1.408127 -4.584583 15.859442 3.200699 -9.697436 -6.304603 7.620805 9.544289 -13.247060 1.927817 11.968486 -42.283494 30.141638 94.888096 -0.030671 9.039061 4.650626 3.497265 -7.817396 -8.471731 -10.198279 -2.540814 -11.420342 -41.488872 -66.006524 -107.678679 -26.445765 -43.900776 0.508809 13.338558 9.974739 -0.151579 -32.928020 -3.639579 7.101514 30.485216 -2.719923 -2.005458 1.630261 4.977067 -0.823481 0.121157 -0.035676 19.686444 -4.004350 8.434870 -4.052926 40.188653 -17.199530 0.182488 -27.158034 1.813572 1.568930 -8.292188 0.606371
-31.637190 86.935183 114.563380 15.632208 0.652106 1.897857 -2.696092 5.501686 4.920571 -1.087870 2.705190 1.804747 -1.087870 2.705190 1.804747 -0.823753 2.025709 1.358132 -5.012882 16.344491 3.492051 -10.545259 -5.325393 8.259110 10.017823 -13.127273 1.819191 11.643479 -41.985702 29.867827 91.230888 1.641469 8.469118 5.250144 3.403586 -7.789420 -8.210969 -10.487070 -2.716371 -11.566999 -41.477113 -67.397728 -107.941110 -27.405746 -44.083033 0.532747 13.384702 9.996046 -0.740435 -31.148368 -3.680560 6.443657 29.319187 -2.850932 -2.260379 1.714707 4.812581 -0.898471 0.202099 -0.067074 18.898235 -2.290465 8.593931 -3.654414 37.752986 -16.001013 0.456560 -27.009234 1.917686 1.528298 -6.751510 -0.091087
-31.861950 87.253891 114.996852 17.011858 0.168299 1.740233 -2.444203 5.316518 4.770754 -0.985347 2.623592 1.730067 -0.985347 2.623592 1.730067 -0.746320 1.964930 1.301560 -5.385377 16.830521 3.777010 -11.279715 -4.346322 8.857590 10.324405 -12.924877 1.857191 11.482908 -41.864841 29.538448 87.869102 2.753903 7.875729 5.574071 3.257211 -7.806987 -8.092726 -10.820312 -2.879628 -11.760167 -41.706710 -68.431621 -108.064302 -28.124718 -44.217367 0.562773 13.451679 9.957926 -1.256215 -29.674005 -3.703693 5.863172 28.341054 -2.916506 -2.616155 1.689740 4.640903 -0.952460 0.315462 -0.095312 17.966391 -0.826582 8.599184 -3.237805 35.567087 -14.751750 0.630360 -26.942827 1.950393 1.618279 -5.301342 -0.690417
-32.053909 87.499242 115.396240 18.143521 -0.263102 1.623785 -2.097809 5.193666 4.537739 -0.869406 2.544015 1.640087 -0.869406 2.544015 1.640087 -0.658784 1.905699 1.233487 -5.680908 17.291231 4.110639 -11.884542 -3.412781 9.515509 10.417776 -12.729180 2.039910 11.064438 -41.889604 29.361257 85.177424 3.521115 7.404015 5.740541 3.217717 -7.751623 -8.243584 -11.205817 -2.940170 -12.109103 -42.117849 -69.062386 -108.083398 -28.521879 -44.314141 0.595283 13.445210 9.943630 -1.725683 -28.369269 -3.699741 5.508101 27.488207 -2.925487 -2.995890 1.548767 4.507953 -0.964481 0.482554 -0.150931 17.010965 0.499981 8.545851 -2.904771 33.639521 -13.680361 1.075076 -26.937476 1.862178 1.597524 -3.639513 -0.843631
-32.198461 87.724068 115.767544 19.136716 -0.628071 1.540028 -1.775692 5.126342 4.235374 -0.762556 2.464500 1.543018 -0.762556 2.464500 1.543018 -0.578059 1.846467 1.160164 -5.915431 17.700104 4.467743 -12.384673 -2.575790 10.196855 10.368338 -12.556000 2.300819 10.403165 -41.943404 29.463819 83.360186 4.195519 7.010408 5.642337 3.269621 -7.677863 -8.578814 -11.555915 -2.952956 -12.809089 -42.621014 -69.084856 -108.184304 -28.558572 -44.178646 0.677278 13.474759 9.823122 -2.218153 -27.220240 -3.702285 5.300207 26.730902 -2.905909 -3.345322 1.348747 4.474449 -0.971059 0.647142 -0.258749 16.027242 1.612753 8.408009 -2.766867 32.075775 -12.726483 1.714287 -27.018978 1.568652 1.536143 -2.391750 -0.839050
-32.248543 87.919798 116.058674 20.099517 -0.809111 1.540344 -1.588346 5.006654 3.849380 -0.674802 2.402990 1.446820 -0.674802 2.402990 1.446820 -0.511723 1.800660 1.087612 -6.149978 17.987349 4.813424 -12.890742 -1.961160 10.868098 10.194314 -12.416358 2.561224 9.624793 -42.039308 29.931149 82.315391 4.840800 6.678520 5.528883 3.311637 -7.607467 -8.974895 -11.925271 -2.926025 -13.624324 -43.226128 -68.698950 -108.246975 -28.459668 -44.003412 0.861048 13.601856 9.575247 -2.987988 -26.406262 -3.726419 5.390974 26.114738 -2.825660 -3.697668 1.139685 4.472323 -0.908873 0.775450 -0.347818 14.827577 2.318521 8.173233 -2.721622 30.900466 -12.040660 2.735290 -27.045711 1.208543 1.256017 -1.518248 -0.840888
-32.224388 88.050486 116.278988 20.883634 -0.968661 1.472603 -1.421551 4.982802 3.555317 -0.623545 2.363090 1.367595 -0.623545 2.363090 1.367595 -0.472886 1.770935 1.027964 -6.311691 18.154679 5.087379 -13.252357 -1.586257 11.397890 9.945116 -12.326659 2.772537 8.859686 -42.126680 30.569726 81.853859 5.147603 6.474545 5.554335 3.315724 -7.682246 -9.355367 -12.264767 -2.922826 -14.378952 -43.849113 -68.125654 -108.194881 -28.324198 -43.854339 1.036612 13.657920 9.292745 -3.575926 -25.806730 -3.754045 5.369882 25.735184 -2.724956 -4.016651 1.013991 4.439328 -0.761905 0.776197 -0.369325 13.592142 2.838565 8.091311 -2.342449 30.077335 -11.516624 3.573236 -26.902024 0.928984 0.902482 -1.052777 -0.858545
-32.342972 88.136293 116.442266 21.668502 -0.858488 1.166320 -1.460871 4.747451 3.505266 -0.591733 2.328262 1.301910 -0.591733 2.328262 1.301910 -0.448703 1.744947 0.978555 -6.416192 18.247849 5.285203 -13.493422 -1.367075 11.779339 9.666707 -12.264867 2.979183 8.283760 -42.137471 31.133908 81.726043 5.241239 6.347888 5.641990 3.281853 -7.888879 -9.631806 -12.574166 -2.925455 -15.024258 -44.336243 -67.561172 -108.003277 -28.227489 -43.777258 1.195185 13.674857 9.098862 -4.395746 -25.596850 -3.404178 5.280900 25.471589 -2.668492 -4.043070 0.946252 4.393991 -0.784647 0.725198 -0.426839 12.618056 2.974221 8.211519 -1.936723 29.455869 -11.031514 3.389696 -26.739580 0.819696 1.138656 -0.783178 -0.616423
-32.357448 88.201399 116.605759 22.093693 -0.962061 0.928551 -1.381057 4.750364 3.392800 -0.584549 2.286448 1.259333 -0.584549 2.286448 1.259333 -0.443069 1.713642 0.946564 -6.458898 18.280735 5.389879 -13.599818 -1.282898 11.979264 9.415284 -12.122039 3.193870 7.983249 -42.113159 31.467999 81.807884 5.230119 6.247039 5.696833 3.234099 -8.006152 -9.840313 -12.775371 -2.919234 -15.429580 -44.715245 -67.116136 -107.833581 -28.070365 -43.671055 1.373917 13.649467 9.002369 -5.249995 -25.261285 -3.055004 5.361010 25.278313 -2.623061 -3.941382 0.929060 4.318622 -0.721550 0.632503 -0.437631 12.387027 3.331528 8.423086 -2.012035 28.793278 -10.719123 3.585148 -26.589735 0.690947 1.081747 -0.562528 -0.498123
-32.404546 88.248790 116.739573 22.477417 -0.902953 0.623479 -1.439168 4.622596 3.364849 -0.596344 2.239471 1.235014 -0.596344 2.239471 1.235014 -0.451731 1.678409 0.928330 -6.479980 18.265563 5.450170 -13.659195 -1.297700 12.098042 9.203490 -11.975790 3.392024 7.880576 -42.062988 31.667073 82.052852 5.307558 6.222675 5.693981 3.226018 -8.074205 -9.918452 -12.957436 -2.918815 -15.667854 -44.976344 -66.870149 -107.808659 -27.816275 -43.508458 1.571033 13.625674 8.970812 -6.228127 -25.093759 -2.553716 5.631080 25.074924 -2.544061 -3.876101 0.918169 4.268315 -0.699822 0.571410 -0.474147 12.360063 3.527148 8.688820 -2.279849 28.122186 -10.504843 3.566441 -26.515979 0.593634 1.192141 -0.334617 -0.283837
